<svg xmlns="http://www.w3.org/2000/svg"
     viewBox="0 0 14.906 32"
     width="14.906"
     height="32"
     fill="none">

  <path d="M14.874,11.167 L14.262,14.207 C14.062,15.208 13.100,15.992 12.072,15.992 L10.000,15.992 L10.000,30.000 C10.000,31.104 9.159,32.000 8.049,32.000 L5.030,32.000 C3.920,32.000 3.017,31.102 3.017,29.999 L3.017,15.992 L2.011,15.992 C0.901,15.992 -0.002,15.095 -0.002,13.991 L-0.002,10.990 C-0.002,9.887 0.901,8.989 2.011,8.989 L3.017,8.989 L3.017,6.003 C3.017,2.716 5.693,0.041 8.994,0.013 C9.015,0.012 9.033,0.001 9.055,0.001 L13.081,0.001 C13.636,0.001 14.000,0.448 14.000,1.000 L14.000,6.000 C14.000,6.553 13.636,7.004 13.081,7.004 L10.061,7.004 L10.060,8.989 L13.079,8.989 C13.645,8.989 14.167,9.228 14.509,9.644 C14.852,10.059 14.985,10.615 14.874,11.167 Z"
        stroke="#FFFFFF"
        stroke-width="1.8"
        stroke-linejoin="round"/>
</svg>