<svg viewBox="0 0 24 24" xmlns="http://www.w3.org/2000/svg" fill="none">
  
  <path d="M10.9 11.77C10.16 10.84 11.39 1.79 19.38 1.79
           C19.56 1.79 19.73 1.86 19.87 1.98
           C20.01 2.10 20.09 2.27 20.12 2.45
           C20.35 4.80 19.65 7.15 18.17 9
           C16.57 10.85 14.12 11.77 10.9 11.77Z"
        stroke="#FFFFFF"
        stroke-width="2"
        stroke-linecap="round"
        stroke-linejoin="round"/>

  <path d="M10.9 11.76C8.4 11.46 3.81 9.59 3.81 4.7
           C3.81 4.52 3.88 4.34 4 4.2
           C4.12 4.06 4.28 3.97 4.47 3.95
           C6.29 3.76 8.11 4.30 9.55 5.45
           C10.8 6.6 11.65 8.7 11.65 11"
        stroke="#FFFFFF"
        stroke-width="2"
        stroke-linecap="round"
        stroke-linejoin="round"/>

  <line x1="10.9" y1="11" x2="10.9" y2="15.5"
        stroke="#FFFFFF"
        stroke-width="2"
        stroke-linecap="round"/>

  <rect x="6" y="15.5" width="9" height="6"
        rx="2"
        stroke="#FFFFFF"
        stroke-width="2"
        stroke-linejoin="round"/>

</svg>