<svg xmlns="http://www.w3.org/2000/svg"
     viewBox="0 0 31.812 26"
     width="31.812"
     height="26"
     fill="none"
     stroke="#FFFFFF"
     stroke-width="1.8"
     stroke-linecap="round"
     stroke-linejoin="round">

  <path d="M20.877,2.000 C22.519,2.000 24.382,2.652 25.426,3.738 C26.724,3.486 27.949,3.025 29.050,2.386 C28.625,3.687 27.718,4.779 26.540,5.469 C27.693,5.332 28.797,5.035 29.820,4.590 C29.054,5.707 28.087,6.690 26.971,7.477 C26.981,7.715 26.987,7.955 26.987,8.195 C26.987,15.562 21.445,24.000 10.939,24.000 C7.715,24.000 4.507,23.133 1.982,21.551 C2.428,21.605 2.883,21.631 3.343,21.631 C6.019,21.631 8.482,20.740 10.439,19.242 C7.937,19.199 5.827,17.586 5.103,15.373 C5.450,15.437 5.810,15.473 6.178,15.473 C6.696,15.473 7.203,15.406 7.681,15.277 C5.068,14.768 3.100,12.514 3.100,9.813 C3.100,9.787 3.100,9.764 3.100,9.740 C3.871,10.158 4.750,10.410 5.687,10.440 C4.154,9.437 3.147,7.734 3.147,5.799 C3.147,4.777 3.428,3.818 3.919,2.998 C6.735,6.367 10.945,8.588 15.693,8.822 C15.594,8.414 15.543,7.984 15.543,7.553 C15.543,4.473 17.721,2.000 20.877,2.000 Z"/>

</svg>